<svg width="198" height="200" viewBox="0 0 198 200" fill="none" xmlns="http://www.w3.org/2000/svg">
<mask id="mask0_0_1" style="mask-type:alpha" maskUnits="userSpaceOnUse" x="5" y="31" width="190" height="110">
<path d="M176.041 71.9237L194.427 76.1387L155.943 118.558L145.849 115.639L131.159 115.901L107.629 107.809L94.7752 106.849L94.6062 110.052L88.8943 116.885L78.0167 113.288L57.46 118.411L50.3329 113.906L46.488 114.868L42.7142 113.029L38.8107 118.72L34.4973 123.88L35.4805 125.688L35.6376 128.727L32.7411 129.95L31.3466 134.982L28.6811 137.049L25.8946 140.383L20.9994 140.028L9.40601 129.257L5.11726 121.963L5.55663 117.719L8.8816 115.485L11.9213 112.546L16.3895 111.734L19.0447 109.484L23.0659 110.411L35.6615 104.603L34.817 101.721L35.0141 98.284L38.8153 98.3966L40.336 95.1185L33.3012 89.238L42.4406 74.9688L63.6102 49.6435L88.4715 41.3462L112.552 31.5998L136.905 49.1678L176.041 71.9237Z" fill="#D9D9D9"/>
</mask>
<g mask="url(#mask0_0_1)">
<rect x="47.0659" y="-65.4718" width="202.442" height="303.625" transform="rotate(39.8926 47.0659 -65.4718)"/>
</g>
<path fill-rule="evenodd" clip-rule="evenodd" d="M198.001 75.0161L156.551 120.704L145.597 117.536L130.859 117.799L107.244 109.678L96.5634 108.881L96.4631 110.782L89.5213 119.086L77.9903 115.273L57.0256 121.598L49.3644 117.027L46.2318 117.84L43.849 116.738L40.6678 120.544L37.7867 124.576L38.6998 129.391L35.1579 132.375L34.0875 136.734L29.2857 140.337L25.6659 143.339L20.3161 142.865L12.2987 136.163L7.06337 130.377L2.58326 121.987L2.37214 116.948L7.11916 112.931L11.9517 109.888L16.6583 107.183L21.1094 106.621L31.9865 103.727L32.4495 103.34L31.8699 102.009L32.882 95.9491L37.6513 96.096L37.9329 95.5771L30.8077 89.621L40.911 73.8467L64.0372 45.579L112.962 28.5846L137.937 47.5781L176.744 70.1428L198.001 75.0161ZM190.852 77.2613L175.338 73.7046L135.873 50.7575L112.293 33.7469L89.1266 43.1231L64.7183 51.2693L43.9697 76.0908L35.7944 88.8549L42.7387 94.6597L39.866 99.9521L36.0714 99.8351L35.789 101.526L37.0517 104.424L34.0444 106.942L23.7714 111.799L20.5971 110.502L18.6086 110.753L16.7564 112.969L13.3082 113.508L9.36166 115.993L6.23241 118.641L6.32979 120.965L10.1835 128.183L14.9292 133.428L21.833 139.199L24.4481 139.43L26.9398 137.364L30.7333 134.518L31.7753 130.274L34.5677 127.922L33.7656 123.691L37.671 118.226L42.8049 112.084L46.5917 113.835L49.9453 112.965L57.5311 117.491L78.0426 111.303L88.2668 114.684L92.7489 109.322L92.9865 104.817L108.013 105.939L131.458 114.002L146.101 113.741L155.334 116.411L190.852 77.2613Z" fill="url(#paint0_linear_0_1)"/>
<defs>
<linearGradient id="paint0_linear_0_1" x1="88.7195" y1="142.133" x2="51.7524" y2="28.808" gradientUnits="userSpaceOnUse">
<stop stop-color="#E8DCD1"/>
<stop offset="1" stop-color="white"/>
</linearGradient>
</defs>
</svg>
