<svg width="225" height="228" viewBox="0 0 225 228" fill="none" xmlns="http://www.w3.org/2000/svg">
<path d="M111.69 110.922L112.088 111.143L112.232 111.748L109.24 118.845C109.056 118.658 108.913 118.48 108.757 118.27C109.02 117.77 109.159 117.203 109.389 116.684L111.69 110.922Z" fill="#010000"/>
<path d="M123.612 86.7125L124.24 86.6349C123.837 91.5229 121.757 95.9506 118.008 99.1629C117.812 99.3309 117.67 99.4304 117.434 99.5412C116.045 99.0741 114.632 98.3292 113.395 97.5463L113.541 97.2754C114.738 97.6283 116.038 98.4191 117.191 98.9487C117.465 98.7871 117.7 98.6197 117.942 98.4127C121.011 95.7891 123.295 90.6804 123.612 86.7125Z" fill="#010000"/>
<path d="M113.541 97.2755L113.451 97.0109L123.681 85.1169L123.612 86.7126C123.295 90.6805 121.011 95.7892 117.942 98.4128C117.7 98.6198 117.465 98.7872 117.191 98.9488C116.038 98.4192 114.738 97.6284 113.541 97.2755Z" fill="#0C0C0C"/>
<path d="M111.69 110.922L114.003 105.289C114.81 103.404 115.597 100.883 117.368 99.7259L117.783 99.4237C121.668 101.448 123.853 106.679 125.088 110.668C125.748 112.8 125.951 114.859 125.728 117.077C125.176 116.436 124.798 115.414 124.375 114.663C123.294 112.744 122.22 111.093 121.431 109.02C121.356 110.508 121.419 112.957 120.418 114.138L120.263 114.334L120.157 114.465C120.656 116.397 122.187 118.087 122.396 120.156L120.478 116.084C119.659 118.911 118.627 122.024 117.181 124.59C117.008 124.899 116.761 125.5 116.473 125.698L116.416 125.55C115.734 123.8 114.851 122.172 114.208 120.398C114.057 119.982 114.196 119.64 114.308 119.229C114.556 118.318 115.466 116.247 115.275 115.36C115.16 114.831 114.408 113.926 114.135 113.372C113.61 112.303 113.129 111.178 112.763 110.044C112.608 110.622 112.468 111.196 112.232 111.748L112.088 111.143L111.69 110.922Z" fill="#0C0C0C"/>
<path fill-rule="evenodd" clip-rule="evenodd" d="M97.7067 87.8861L113.394 97.5465L113.541 97.2756L113.45 97.011L123.681 85.117L123.612 86.7127L124.239 86.6351C124.243 86.5015 124.242 86.358 124.24 86.2095C124.237 85.69 124.233 85.1089 124.404 84.6743C124.67 84.0018 124.605 83.0658 124.548 82.2458C124.532 82.0165 124.517 81.7962 124.51 81.5933L128.635 82.7287C130.789 83.1494 133.334 83.0855 135.192 81.7915C136.023 81.2126 136.731 80.2583 137.042 79.2943C137.209 78.7798 137.302 78.2263 137.359 77.6884C137.418 77.1228 137.443 76.5511 137.468 75.9788C137.512 74.9636 137.556 73.9465 137.795 72.958C137.989 72.154 138.263 71.371 138.538 70.5878C138.882 69.6051 139.227 68.6221 139.413 67.5975L139.446 67.4003C139.54 66.8838 139.561 66.5456 139.441 66.0287L139.285 65.2833L139.285 65.2828C139.354 64.9968 139.411 64.7086 139.467 64.4206C139.582 63.8333 139.696 63.2473 139.921 62.6847C140.053 62.3556 140.218 62.0313 140.382 61.7062C140.618 61.241 140.855 60.7742 140.998 60.2895C141.092 59.9687 141.132 59.6345 141.172 59.3001C141.205 59.0245 141.238 58.7488 141.302 58.4805C141.44 57.8988 141.598 57.3311 141.756 56.7668C142.118 55.4722 142.474 54.1952 142.568 52.8062C142.668 51.3262 142.493 49.7935 142.277 48.3301C142.255 48.1848 142.2 47.9731 142.141 47.7448C142.035 47.3388 141.916 46.8807 141.949 46.652C141.957 46.5924 142.105 46.3822 142.212 46.231C142.255 46.1701 142.291 46.1188 142.308 46.0906C142.776 45.3428 142.954 44.986 142.959 44.0703C142.483 43.8518 141.926 43.8279 141.374 43.8042C141.043 43.79 140.713 43.7758 140.403 43.7198C139.96 43.6397 139.379 43.627 138.941 43.8265C139.379 43.6269 139.96 43.6395 140.403 43.7197C140.713 43.7757 141.043 43.7898 141.374 43.804C141.926 43.8278 142.483 43.8517 142.959 44.0702L143.14 43.8861C143.702 43.2159 144.613 41.5564 145.033 39.9524C145.185 38.584 144.906 36.9713 144.629 35.3707C144.461 34.402 144.294 33.4378 144.224 32.5349C144.46 32.3524 144.704 32.1724 144.951 31.9912C145.544 31.5544 146.148 31.1105 146.658 30.6069C148.241 29.0424 149.387 26.5792 149.64 24.3756C149.9 22.1065 149.236 19.7481 147.778 17.9867C146.805 16.8117 145.782 16.2769 144.326 15.8809C144.244 15.8587 144.215 15.8587 144.201 15.8439C144.186 15.8265 144.193 15.7885 144.165 15.6693C145.156 12.4526 145.279 9.3919 143.677 6.31694C142.376 3.82075 140.396 3.09943 137.711 2.6931C136.979 4.31972 135.515 4.90821 134.167 4.98472C132.284 5.09158 130.101 4.20778 128.138 3.41305C127.489 3.15033 126.865 2.89734 126.283 2.6931C118.285 -0.114172 107.851 -2.3109 101.269 4.68682C100.711 5.28018 100.192 5.93279 99.7456 6.61426C99.6805 6.71361 99.5883 6.88154 99.4828 7.07357C99.2322 7.52966 98.907 8.12172 98.6937 8.25389C98.4782 8.38736 97.8678 8.44254 97.3377 8.49047C97.0454 8.51689 96.7776 8.54111 96.6138 8.57503C95.2905 8.84891 94.0722 9.40742 92.9012 10.0688C84.7008 14.6998 83.1329 25.0317 83.4639 33.6464C83.83 43.1754 87.4142 51.737 92.0362 59.9311C92.2341 60.2818 92.4369 60.6712 92.6476 61.0757C93.2955 62.3196 94.0181 63.707 94.9025 64.556C95.2856 64.9236 95.7147 65.1398 96.2077 65.3185C96.3644 65.8565 96.2823 66.6204 96.2103 67.291C96.1852 67.5251 96.1612 67.7477 96.1491 67.9455C95.9412 71.3355 95.6361 74.8163 94.9771 78.1501L94.8444 78.1574L94.6237 78.1794L94.4744 78.1906C93.6251 78.2712 92.8597 78.8237 92.3462 79.4846C91.8981 80.0606 91.5398 80.7523 91.6355 81.502C91.9437 83.9193 94.9995 86.0212 97.0713 87.4462C97.2963 87.601 97.5097 87.7478 97.7067 87.8861ZM137.573 45.2328L137.378 45.1416L137.391 44.3128C137.405 44.0988 137.372 44.0532 137.286 43.9326C137.265 43.9024 137.24 43.8675 137.212 43.8241C137.212 43.8243 137.212 43.8244 137.212 43.8245C137.24 43.8678 137.265 43.9026 137.286 43.9327C137.372 44.0533 137.405 44.0989 137.391 44.3129L137.377 45.1417L137.573 45.233L137.573 45.2328ZM139.907 60.8283L139.039 61.1011L139.038 61.1012L139.906 60.8284C139.906 60.8284 139.906 60.8283 139.907 60.8283ZM138.8 61.1792L138.031 61.3935L138.031 61.3936L138.8 61.1793L138.8 61.1792Z" fill="#0C0C0C"/>
<path d="M116.284 211.35L119.904 211.349C120.195 211.349 120.883 211.266 121.124 211.349C121.225 211.383 121.286 211.487 121.366 211.557L121.293 211.774L117.529 211.814C117.11 211.81 116.531 211.891 116.178 211.657L116.284 211.35Z" fill="#010000"/>
<path d="M113.715 204.068C114.589 204.682 115.589 204.52 116.629 204.529L121.015 204.556C120.71 204.801 120.154 204.701 119.756 204.702L115.896 204.707C115.988 204.972 116.007 204.934 116.227 205.078C115.467 205.096 114.605 205.028 113.881 205.273C113.661 205.626 113.703 205.803 113.699 206.212L113.576 206.074C113.509 205.765 113.465 205.636 113.57 205.33C113.71 204.918 113.7 204.5 113.715 204.068Z" fill="#161515"/>
<path d="M130.457 219.618L134.653 219.631C135.297 219.634 136.072 219.552 136.702 219.648L136.525 219.803L132.744 219.83L132.573 220.113C132.971 220.377 133.892 220.262 134.388 220.266L139.42 220.27C140.156 220.267 141.124 220.139 141.814 220.342C140.491 220.546 139.05 220.449 137.71 220.455L130.361 220.428L130.613 219.989L130.457 219.618Z" fill="#161515"/>
<path d="M134.671 195.57L138.495 195.508C139.81 195.87 141.502 195.67 142.872 195.662L142.818 195.852C142.371 196.049 141.871 195.945 141.402 196.037C140.598 196.176 139.581 196.058 138.756 196.051L132.597 195.993L132.561 195.852L131.936 195.805L131.864 195.662L134.506 195.59L134.671 195.57Z" fill="#010000"/>
<path d="M120.729 208.348C121.315 208.332 122.319 208.184 122.87 208.301C123.3 208.333 123.74 208.283 124.104 208.523C124.049 208.587 123.837 208.79 123.834 208.87L115.213 208.866L115.142 208.708L113.846 208.667L113.988 208.486C114.534 208.36 115.053 208.45 115.606 208.473C116.378 208.505 120.337 208.71 120.729 208.348Z" fill="#010000"/>
<path d="M139.748 181.794L144.392 181.884C144.308 182.117 144.299 182.346 144.08 182.474L140.787 182.331C140.729 182.226 140.76 182.076 140.761 181.958C140.395 181.949 140.037 182.028 139.748 181.794Z" fill="#161515"/>
<path fill-rule="evenodd" clip-rule="evenodd" d="M83.3126 88.7424L81.3426 90.5997C80.1581 91.7026 79.0423 92.2289 77.7085 92.8581C77.339 93.0324 76.9528 93.2146 76.5438 93.4191L54.1506 103.443L47.8006 107.735C47.6751 107.829 47.5472 107.924 47.4179 108.019C46.6172 108.61 45.7677 109.238 45.1541 109.997C43.6879 111.81 43.098 114.401 42.5837 116.661C42.5548 116.787 42.5262 116.913 42.4977 117.037L40.946 125.042L36.7003 152.072L32.4093 183.619L30.5056 198.328C30.0258 202.272 29.5596 206.304 29.69 210.284C29.8257 214.421 30.7121 218.418 32.9501 221.949C34.7571 224.8 37.5321 227.241 40.7083 228.437C44.4998 229.865 48.5568 230.789 52.5409 231.696C53.3007 231.87 54.0579 232.042 54.81 232.217L79.5938 238.439L82.5072 243.641C82.6907 243.677 82.9299 243.706 83.1863 243.736C83.7373 243.801 84.3677 243.875 84.6954 244.065L84.592 247.986L0.825292 248.02L0.675049 254.27L224.072 254.233L224.088 248.041L176.415 247.671C179.093 244.97 179.569 240.821 179.093 236.903L184.345 225.888L188.701 215.369C188.91 214.836 189.122 214.301 189.335 213.765C191.004 209.562 192.713 205.258 192.825 200.698C192.905 197.463 192.013 194.276 191.141 191.157C190.982 190.588 190.823 190.021 190.671 189.457L188.588 181.637L183.576 163.538L174.293 130.694C173.844 129.116 173.403 127.532 172.961 125.946C171.215 119.677 169.459 113.373 167.154 107.31L167.152 107.306C166.64 105.959 166.051 104.408 164.923 103.443C163.62 102.328 161.927 101.549 160.289 100.796C159.644 100.499 159.008 100.206 158.408 99.8988L132.667 92.0723L144.219 110.205L139.217 115.137L139.217 115.137C138.46 115.828 137.761 116.502 137.127 117.308L147.967 123.418L147.948 123.616L147.925 123.857C147.814 125.053 147.689 126.391 147.351 127.503L147.351 127.504L144.182 146.18C143.927 147.927 143.537 149.627 143.145 151.342L143.144 151.342L143.144 151.342C143.062 151.702 142.979 152.063 142.898 152.424L142.868 152.559C142.065 156.121 141.264 159.678 140.185 163.169C140.118 163.386 140.054 163.609 139.988 163.834L139.988 163.834L139.988 163.835C139.73 164.726 139.462 165.656 138.98 166.416C139.117 164.835 139.543 163.217 139.96 161.636L139.96 161.636C140.113 161.052 140.266 160.474 140.402 159.904L142.053 152.417L146.727 127.042C146.755 126.993 146.783 126.944 146.811 126.894C146.913 126.711 147.016 126.526 147.17 126.387L147.17 126.387C147.016 126.526 146.913 126.711 146.811 126.894L146.81 126.894C146.783 126.944 146.755 126.993 146.726 127.042L147.041 123.764C146.954 123.579 143.356 121.521 140.917 120.126L140.917 120.126L140.914 120.124C139.897 119.542 139.082 119.076 138.809 118.91L136.371 117.288L138.841 114.837L138.841 114.837C139.229 114.428 139.641 114.017 140.059 113.601C141.208 112.455 142.4 111.266 143.241 109.967C141.177 107.039 139.355 103.97 137.531 100.899C136.447 99.0732 135.363 97.247 134.227 95.4496C133.967 95.0381 133.718 94.6126 133.468 94.1858C132.997 93.3814 132.523 92.5723 131.968 91.8429C130.205 89.5253 128.225 87.3049 125.619 85.9572C125.657 87.0416 125.843 88.0023 126.036 89.0025C126.108 89.374 126.181 89.751 126.248 90.1418L127.154 96.4786L128.558 110.647C128.726 112.156 128.956 113.661 129.187 115.166C129.493 117.169 129.8 119.173 129.96 121.188C130.202 124.226 130.136 127.26 130.035 130.303C129.775 138.189 128.621 146.112 125.953 153.564L123.206 160.263C123.178 160.324 123.149 160.385 123.121 160.446C122.548 161.674 121.948 162.961 121.097 164.017C117.596 160.305 115.013 155.62 112.56 151.171L112.485 151.034C106.434 140.06 101.561 128.725 97.3568 116.927L92.3003 101.874L108.759 119.801L109.24 118.845C109.056 118.658 108.913 118.481 108.757 118.271C108.504 118.101 108.256 117.771 108.028 117.468C107.926 117.333 107.828 117.204 107.736 117.096L105.032 114.016C103.681 112.517 102.282 111.049 100.882 109.579C97.9139 106.465 94.9385 103.342 92.3916 99.8988C91.7312 99.0061 91.3724 98.2002 91.0366 97.1483C89.9437 93.729 88.7 89.436 89.1427 85.8439C89.2882 84.6646 89.9032 83.2149 90.4601 82.1645L90.5709 81.958L88.4662 83.315C87.8967 83.7358 87.405 84.286 86.926 84.8221C86.8071 84.9551 86.6891 85.0872 86.5708 85.2162L83.3126 88.7424ZM80.3083 91.7887L79.7211 92.1612V93.1375C79.7233 94.2237 79.64 95.3246 79.5567 96.4249L79.5567 96.4251C79.4952 97.2377 79.4337 98.05 79.4067 98.8558L79.2198 112.748C79.2209 113.208 79.202 113.703 79.1826 114.213L79.1826 114.214C79.1344 115.48 79.0828 116.833 79.3257 117.938L85.4501 120.365L88.476 121.394C88.6299 121.441 88.783 121.479 88.9341 121.517C89.3526 121.621 89.7559 121.722 90.1188 121.997L84.3079 126.041C83.9863 126.269 83.6509 126.494 83.312 126.722L83.3119 126.722L83.3115 126.723L83.3111 126.723L83.3109 126.723C82.3835 127.347 81.4301 127.988 80.6617 128.745L80.6651 128.992L81.2855 129.589L81.6881 129.432L81.6881 129.432L81.2854 129.59L81.282 129.607L84.219 133.853C87.3298 138.53 114.277 178.8 115.612 179.444C114.954 178.534 114.346 177.545 113.741 176.561L113.741 176.561L113.741 176.561L113.741 176.561L113.741 176.561L113.741 176.561L113.74 176.561L113.74 176.561C113.372 175.961 113.004 175.363 112.627 174.786L106.177 165.054L89.1509 139.887L84.5782 133.091L82.5955 130.224C82.5468 130.153 82.4941 130.08 82.4401 130.006L82.4398 130.005C82.2012 129.676 81.9371 129.311 81.8794 128.928L81.8589 128.717L81.859 128.717L90.8658 121.889L90.5192 121.659L90.519 121.659C89.5297 121.152 88.4348 120.773 87.3515 120.398C86.8149 120.212 86.2811 120.027 85.7645 119.828C85.1268 119.583 84.4896 119.317 83.851 119.051L83.8509 119.051C82.5979 118.53 81.3391 118.005 80.0584 117.623L80.3083 91.7887ZM69.6373 171.855L69.6375 171.855L68.8116 177.081C68.7553 177.4 68.6976 177.717 68.6401 178.033C68.3249 179.764 68.0173 181.453 67.9954 183.239L67.9956 183.239C68.4602 186.067 67.4526 190.64 66.502 194.953C65.8067 198.109 65.142 201.125 65.1063 203.219C64.86 204.697 66.0462 204.877 67.5944 205.111C68.4422 205.239 69.3986 205.384 70.2878 205.768C69.8036 206.037 69.3867 206.121 68.8503 205.98L64.2327 204.684C64.7965 202.5 65.1009 200.275 65.4058 198.047L65.406 198.046C65.4608 197.645 65.5157 197.244 65.5721 196.843L67.6202 180.99L67.6201 180.989C67.5106 180.473 67.6853 179.639 67.8391 178.906C67.9101 178.567 67.9767 178.25 68.0086 177.995L69.0355 170.255L69.0354 170.254L69.9507 160.564C70.4124 152.815 69.9097 144.901 68.131 137.335C67.7473 135.702 67.2525 134.096 66.7581 132.49C66.4922 131.627 66.2263 130.764 65.9779 129.897C67.7322 133.105 68.7753 136.677 69.5768 140.23C70.3148 143.504 70.8771 146.732 71.0997 150.082C71.5868 157.43 70.7322 164.603 69.6373 171.855ZM135.494 178.106L135.578 178.103C136.456 178.078 137.286 178.054 138.155 178.232C138.453 178.479 138.614 178.921 138.758 179.315C138.791 179.408 138.824 179.498 138.858 179.582L136.619 179.694L133.259 179.762C133.495 179.586 133.723 179.393 133.952 179.2L133.952 179.2L133.952 179.2C134.439 178.789 134.928 178.377 135.494 178.106ZM161.167 218.538C161.208 218.552 161.229 218.559 161.243 218.573C161.252 218.581 161.259 218.592 161.266 218.608C161.271 218.619 161.277 218.632 161.284 218.649L161.284 218.649C161.289 218.66 161.294 218.673 161.3 218.688C161.31 218.711 161.322 218.738 161.337 218.77L160.981 218.959C158.964 218.834 156.937 218.906 154.914 218.977H154.914L154.914 218.977L154.913 218.977C154.311 218.998 153.71 219.019 153.109 219.035C152.915 219.041 152.663 219.059 152.381 219.079C151.474 219.144 150.262 219.231 149.709 218.977C149.626 218.939 149.564 218.87 149.502 218.8L149.502 218.8C149.471 218.765 149.441 218.73 149.407 218.7L149.533 218.43L150.511 218.208L152.501 204.79L157.513 204.797L158.884 213.824C158.914 213.982 158.944 214.142 158.975 214.303L158.994 214.404L158.994 214.406C159.233 215.679 159.486 217.021 159.991 218.187C160.31 218.371 160.613 218.419 160.963 218.476L161.028 218.486L161.028 218.486C161.071 218.504 161.105 218.516 161.132 218.526C161.145 218.53 161.156 218.534 161.167 218.538ZM154.056 198.848C153.763 198.869 153.513 198.887 153.331 198.895C152.364 198.985 151.948 199.053 151.266 199.761L151.37 199.958L156.554 199.929C156.681 199.923 156.81 199.924 156.939 199.925C157.406 199.928 157.869 199.93 158.216 199.619L158.172 199.028C157.55 198.601 155.375 198.755 154.057 198.848L154.056 198.848ZM133.165 191.699L140.063 191.654C140.572 191.68 140.872 191.76 141.226 192.128L141.052 192.363L140.038 192.438L134.409 192.529C134.219 192.529 134.016 192.534 133.808 192.541C133.149 192.56 132.433 192.581 131.855 192.422L131.733 192.128C132.095 191.785 132.487 191.754 132.943 191.718C133.016 191.712 133.089 191.706 133.165 191.699ZM131.437 192.977C132.415 192.919 133.376 192.945 134.341 192.97C134.927 192.986 135.513 193.001 136.106 192.998L139.57 192.897C139.617 192.895 139.664 192.893 139.712 192.892L139.837 192.886L139.837 192.886H139.837H139.837C140.497 192.858 141.206 192.828 141.759 193.178V193.633C141.577 193.709 141.453 193.726 141.254 193.731L133.974 193.768C133.856 193.768 133.7 193.773 133.523 193.779H133.523C132.849 193.801 131.872 193.834 131.512 193.603C131.438 193.556 131.377 193.492 131.316 193.428L131.316 193.428C131.285 193.395 131.254 193.362 131.222 193.332L131.437 192.977ZM151.534 200.418L156.541 200.422C156.613 200.422 156.688 200.422 156.766 200.421C156.825 200.421 156.885 200.42 156.947 200.419L156.953 200.419H156.954H156.954H156.954H156.955H156.955C157.728 200.41 158.691 200.399 159.284 200.752C159.287 200.787 159.291 200.819 159.294 200.85L159.3 200.902L159.3 200.903C159.332 201.179 159.346 201.304 159.193 201.598L158.684 201.668L153.066 201.615C153.008 201.614 152.945 201.613 152.88 201.612C152.819 201.612 152.756 201.612 152.691 201.611C152.086 201.61 151.301 201.608 150.877 201.362C150.854 201.349 150.835 201.338 150.818 201.328L150.817 201.328C150.751 201.291 150.723 201.274 150.707 201.249C150.695 201.23 150.691 201.205 150.684 201.162C150.678 201.124 150.67 201.071 150.653 200.995C150.948 200.63 151.061 200.589 151.445 200.45L151.534 200.418ZM113.781 203.669L113.715 204.068C114.431 204.571 115.231 204.554 116.068 204.536C116.253 204.532 116.441 204.528 116.629 204.53L121.015 204.556C121.146 204.554 121.318 204.557 121.514 204.561H121.514H121.515H121.515H121.516H121.516H121.516H121.517H121.517H121.518H121.518H121.518H121.519H121.519H121.52H121.52H121.52H121.521H121.521C122.255 204.577 123.308 204.599 123.668 204.325C123.676 204.263 123.684 204.209 123.692 204.16L123.692 204.16C123.73 203.907 123.746 203.804 123.583 203.53C122.524 203.252 121.233 203.295 120.035 203.335C119.637 203.348 119.25 203.361 118.885 203.362C118.546 203.363 118.16 203.348 117.75 203.333C116.397 203.282 114.788 203.221 113.781 203.669ZM69.9037 206.537L69.9336 206.526C70.0394 206.488 70.1002 206.466 70.2469 206.468C70.7267 206.478 71.3038 206.634 71.849 206.782C72.1219 206.856 72.3868 206.928 72.6275 206.979L85.1663 209.983C85.34 210.033 85.5524 210.085 85.7838 210.141L85.7854 210.141L85.7861 210.142L85.7867 210.142C86.6168 210.343 87.6894 210.604 88.0901 211.068C86.8108 211.568 72.0086 207.359 69.8799 206.545L69.9037 206.537ZM118.138 205.065H118.137H118.137H118.136H118.136H118.135H118.135H118.134H118.134H118.133H118.133H118.132H118.132H118.131H118.131H118.13H118.13H118.129H118.129H118.128H118.128H118.127H118.127C117.471 205.076 116.831 205.087 116.227 205.078C116.064 205.082 115.895 205.082 115.725 205.082H115.724H115.724H115.724H115.724H115.723H115.723H115.723H115.723C115.101 205.081 114.449 205.081 113.881 205.273C113.695 205.572 113.696 205.745 113.698 206.039C113.699 206.075 113.699 206.113 113.699 206.154C113.699 206.173 113.699 206.192 113.699 206.213C113.736 206.233 113.766 206.251 113.791 206.265C113.804 206.273 113.816 206.281 113.827 206.287L113.827 206.287C113.911 206.339 113.931 206.351 114.071 206.364C115.024 206.457 116.019 206.421 117.008 206.385C117.633 206.362 118.255 206.339 118.863 206.349L122.298 206.503C122.372 206.503 122.467 206.507 122.57 206.511L122.57 206.511H122.571C122.852 206.522 123.201 206.536 123.386 206.479C123.457 206.457 123.509 206.4 123.561 206.343C123.587 206.315 123.613 206.286 123.641 206.262C123.653 206.184 123.666 206.116 123.679 206.055C123.729 205.801 123.758 205.655 123.569 205.383C121.926 205 119.97 205.033 118.138 205.065ZM120.729 208.348C120.486 208.344 120.048 208.346 119.495 208.347C117.163 208.354 112.784 208.366 112.301 208.029C112.289 207.949 112.276 207.895 112.267 207.855C112.256 207.806 112.25 207.779 112.255 207.755C112.261 207.725 112.282 207.698 112.33 207.638L112.331 207.638L112.36 207.601L112.389 207.565C112.771 207.079 113.489 207.042 114.094 207.01H114.094L114.094 207.01L114.095 207.01C114.175 207.006 114.254 207.002 114.329 206.997C116.459 206.853 118.602 206.905 120.735 206.956L120.978 206.962C121.219 206.968 121.477 206.964 121.74 206.961H121.74C122.346 206.952 122.984 206.943 123.527 207.048C123.875 207.115 124.257 207.302 124.509 207.554L124.604 207.675L124.484 207.958C123.941 208.125 123.434 208.236 122.87 208.301C122.486 208.22 121.882 208.267 121.353 208.309L121.352 208.309C121.122 208.327 120.907 208.343 120.729 208.348ZM133.217 195.54C133.827 195.535 134.371 195.53 134.671 195.57L138.495 195.508C138.83 195.508 139.216 195.527 139.624 195.547L139.625 195.547C140.73 195.602 141.995 195.664 142.834 195.379L142.856 195.152C142.75 195.078 142.649 195.021 142.541 194.96L142.541 194.96L142.54 194.96C142.516 194.946 142.49 194.932 142.465 194.917C142.273 194.807 142.157 194.637 142.037 194.46L142.037 194.46L142.034 194.456C142.011 194.422 141.988 194.388 141.964 194.355C140.983 194.119 139.885 194.148 138.836 194.177H138.836H138.835H138.835H138.835H138.834H138.834H138.834H138.834H138.833H138.833H138.833H138.833C138.53 194.185 138.232 194.193 137.942 194.195L130.664 194.323C130.35 194.563 130.286 194.804 130.195 195.148L130.195 195.148C130.187 195.178 130.179 195.207 130.171 195.238C130.53 195.564 132.005 195.551 133.217 195.54ZM154.382 202.096H154.382C154.88 202.104 155.377 202.113 155.869 202.114C156.204 202.115 156.553 202.106 156.911 202.098C158.071 202.07 159.31 202.04 160.362 202.317C161.044 202.496 161.292 202.927 161.592 203.45L161.592 203.45L161.592 203.45C161.657 203.563 161.725 203.68 161.8 203.801L159.625 203.948L151.401 203.93C151.202 203.929 150.958 203.939 150.696 203.951L150.694 203.951L150.693 203.951H150.693H150.693H150.693H150.693H150.692H150.692C149.995 203.981 149.165 204.017 148.684 203.864C148.617 203.842 148.57 203.785 148.522 203.728L148.522 203.728C148.499 203.7 148.475 203.671 148.449 203.647C148.482 203.349 148.514 203.169 148.69 202.914C149.107 202.313 149.969 202.219 150.637 202.146L150.672 202.142C151.892 202.056 153.142 202.076 154.382 202.096ZM133.25 181.811L139.748 181.794C139.974 181.977 140.242 181.969 140.522 181.961L140.523 181.961C140.601 181.959 140.681 181.956 140.761 181.958C140.761 181.987 140.759 182.018 140.757 182.049V182.049C140.75 182.147 140.743 182.252 140.787 182.331L144.08 182.474C144.247 182.376 144.292 182.22 144.341 182.048C144.357 181.994 144.372 181.939 144.392 181.884L144.632 181.599L144.515 181.313C143.88 181.061 143.236 180.979 142.587 180.896C142.195 180.846 141.801 180.795 141.406 180.707C141.09 180.637 140.787 180.534 140.484 180.431C140 180.266 139.518 180.102 138.988 180.073C136.242 179.923 133.305 180.158 130.609 180.642C130.424 180.675 130.245 180.701 130.072 180.726C129.332 180.835 128.69 180.93 128.05 181.484L128.148 181.699C129.483 181.919 130.869 181.878 132.233 181.837C132.574 181.827 132.913 181.817 133.25 181.811ZM119.183 185.627L119.246 185.602C119.661 185.537 119.945 185.536 120.314 185.722C120.419 186.231 120.234 186.788 120.063 187.303L120.063 187.303C120.022 187.427 119.982 187.548 119.946 187.665L121.801 187.922C121.931 188.52 121.928 189.429 121.619 189.941C121.217 190.056 120.822 190.014 120.417 189.971L120.344 189.964C120.313 189.96 120.281 189.957 120.249 189.954C120.234 189.952 120.22 189.951 120.206 189.95C119.879 190.108 119.929 190.562 119.982 191.042C120.03 191.48 120.081 191.941 119.852 192.222L118.474 192.244L117.662 192.217C117.432 191.873 117.5 191.009 117.55 190.377C117.563 190.202 117.576 190.046 117.58 189.923L115.371 189.832C115.368 189.777 115.365 189.72 115.362 189.66C115.329 189.065 115.284 188.242 115.612 187.825L117.083 187.967L117.079 185.663L119.183 185.627ZM123.834 208.871L124.354 208.906C125.063 209.004 125.901 209.696 126.312 210.249L126.313 210.25C126.532 210.545 126.57 210.596 126.51 210.94C125.979 211.157 125.416 211.157 124.851 211.157C124.739 211.157 124.627 211.157 124.515 211.159L121.312 211.18C120.383 211.181 119.435 211.2 118.479 211.219H118.479C115.697 211.274 112.844 211.331 110.173 210.967L111.031 209.877C111.269 209.619 111.739 209.149 112.06 209.024C112.645 208.796 113.663 208.828 114.489 208.853C114.758 208.861 115.006 208.869 115.213 208.867L123.834 208.871ZM138.756 196.052L132.597 195.993C132.395 195.996 132.129 195.981 131.84 195.966C131.18 195.931 130.4 195.889 129.995 196.023C129.792 196.09 129.29 196.636 128.972 196.983C128.883 197.08 128.808 197.162 128.758 197.213C128.583 197.391 128.5 197.547 128.422 197.782L128.532 198.065C129.282 198.341 130.19 198.353 131.038 198.365C131.279 198.369 131.516 198.372 131.742 198.381L140.081 198.467C140.412 198.463 140.784 198.475 141.174 198.486L141.176 198.486L141.177 198.486C142.36 198.522 143.716 198.563 144.629 198.206L144.791 197.923C144.437 197.242 143.83 196.574 143.184 196.157L141.402 196.037C140.833 196.136 140.158 196.105 139.52 196.077C139.255 196.065 138.998 196.054 138.756 196.052ZM135.818 168.476C135.828 168.474 135.837 168.473 135.846 168.472C135.869 168.471 135.892 168.475 135.941 168.484L135.941 168.484C135.97 168.49 136.008 168.497 136.061 168.506C136.164 168.523 136.221 168.534 136.259 168.541L136.275 168.544L136.296 168.548C136.304 168.549 136.312 168.55 136.319 168.551L136.326 168.552L136.338 168.554C136.349 168.555 136.362 168.556 136.378 168.557L136.425 168.56L136.455 168.562L136.456 168.562L136.513 168.566C137.227 168.611 137.651 168.965 138.146 169.379C138.25 169.466 138.356 169.555 138.469 169.644C138.142 170.396 137.919 170.93 137.99 171.776C138.321 172.067 139.174 172.02 139.809 171.984C139.977 171.975 140.13 171.967 140.254 171.966L140.243 174.491L137.893 174.407C137.89 174.648 137.893 174.895 137.895 175.144V175.145V175.145V175.145C137.902 175.851 137.909 176.577 137.802 177.249L137.378 177.354L134.999 177.223L135.208 174.547L132.79 174.517L132.722 171.817L135.242 172.014L135.185 171.423C135.139 170.788 135.105 170.365 134.798 169.791L134.723 169.656L134.805 169.374C135.069 169.317 135.293 169.247 135.54 169.14L135.633 168.526C135.691 168.511 135.731 168.5 135.761 168.491L135.761 168.491C135.786 168.484 135.803 168.479 135.818 168.476ZM154.3 186.899L155.045 186.832C155.499 186.849 155.973 187.175 156.233 187.535C156.413 187.785 156.473 188.073 156.424 188.374C156.344 188.862 156.014 189.231 155.631 189.514L155.531 189.585C155.887 189.856 156.321 190.021 156.766 190.191C157.262 190.38 157.771 190.574 158.2 190.924C159.204 191.745 159.657 193.149 159.722 194.409C159.776 195.471 159.168 196.947 158.417 197.722C157.907 198.249 157.111 198.282 156.406 198.312L156.405 198.312L156.322 198.315C156.261 198.318 156.2 198.321 156.14 198.324L152.045 198.34L152.015 198.313C151.696 198.025 151.369 197.729 151.11 197.384C150.177 196.14 149.871 194.643 150.165 193.118C150.384 191.979 151.764 190.486 152.783 189.928C152.934 189.846 153.086 189.786 153.238 189.727C153.438 189.649 153.636 189.572 153.828 189.443C153.487 188.772 153.395 188.501 153.454 187.747C153.703 187.289 153.846 187.157 154.3 186.899ZM140.787 182.331L144.08 182.475C142.372 185.075 141.156 188.314 140.438 191.319L134.936 191.317C134.73 191.311 134.517 191.31 134.301 191.309H134.3C133.68 191.307 133.035 191.305 132.456 191.181C131.611 188.037 130.178 185.129 128.509 182.35L140.787 182.331ZM118.76 192.794L118.303 192.812C118.187 192.825 118.048 192.835 117.9 192.845C117.489 192.873 117.005 192.906 116.72 193.043C116.44 193.176 116.066 193.667 115.772 194.052C115.67 194.187 115.577 194.308 115.502 194.397C115.498 194.401 115.494 194.406 115.488 194.413L115.467 194.441L115.43 194.488L115.43 194.488L115.43 194.488L115.43 194.488L115.43 194.488L115.429 194.488C115.328 194.619 115.162 194.834 115.113 194.855C114.918 194.937 114.58 194.966 114.281 194.992C114.14 195.004 114.007 195.015 113.903 195.031L110.844 195.463L114.589 202.917L119.322 202.868L123.313 202.837C123.581 201.917 123.996 201.095 124.418 200.257L124.418 200.257L124.418 200.257L124.418 200.257L124.418 200.256C124.548 200 124.678 199.742 124.804 199.48L126.535 195.47L121.574 194.814C121.629 194.308 121.607 194.133 121.265 193.738C120.533 192.889 119.835 192.798 118.76 192.794ZM146.507 226.66L146.507 226.66L146.505 226.658L146.5 226.652L146.397 226.545C146.359 226.504 146.32 226.464 146.282 226.424C145.913 226.042 145.827 225.953 145.775 225.413C146.103 224.5 146.877 223.875 147.65 223.251C148.345 222.689 149.039 222.128 149.407 221.358C149.643 220.866 149.693 220.275 149.74 219.722C149.744 219.682 149.747 219.642 149.751 219.602C149.755 219.554 149.759 219.506 149.764 219.458L160.79 219.459C160.862 220.596 160.94 221.573 161.824 222.38C162.166 222.692 162.61 222.984 163.071 223.288L163.071 223.288C164.219 224.044 165.472 224.869 165.515 226.239C165.533 226.81 165.165 227.479 164.835 227.922C164.196 228.218 163.486 228.243 162.778 228.268C162.371 228.283 161.965 228.298 161.573 228.363C160.799 228.202 159.783 228.257 158.843 228.308C158.419 228.331 158.011 228.353 157.648 228.354L148.324 228.225C147.646 227.856 147.053 227.234 146.507 226.66L146.507 226.66ZM130.423 219.479C130.433 219.517 130.445 219.562 130.457 219.618L134.653 219.631C134.855 219.632 135.071 219.625 135.291 219.617H135.291H135.292H135.292H135.292C135.771 219.6 136.27 219.582 136.702 219.649C137.431 219.631 138.181 219.651 138.936 219.671H138.937C140.244 219.706 141.565 219.742 142.806 219.584L142.836 219.406L142.286 219.153C140.891 217.554 139.649 202.308 139.504 199.324L133.369 199.429C133.025 204.167 132.646 208.831 131.896 213.526C131.856 213.778 131.817 214.04 131.777 214.309C131.537 215.919 131.259 217.778 130.479 219.104C130.371 219.288 130.385 219.341 130.423 219.479ZM111.524 229.857C111.51 229.819 111.502 229.801 111.503 229.782C111.503 229.765 111.51 229.748 111.524 229.714C111.536 229.685 111.553 229.645 111.575 229.582L112.915 229.067C113.322 228.173 113.564 227.101 113.789 226.103L113.789 226.102C113.835 225.898 113.881 225.698 113.926 225.503C114.964 221.081 115.377 216.536 115.656 212.012L122.016 211.975C122.024 215.655 122.632 219.345 123.305 222.954C123.356 223.23 123.406 223.513 123.457 223.8C123.812 225.808 124.204 228.02 125.39 229.624L125.487 229.515C125.674 227.907 126.717 226.693 127.754 225.487L127.754 225.487L127.754 225.487C128.271 224.886 128.785 224.286 129.192 223.641C129.848 222.598 130.133 221.629 130.361 220.428L137.71 220.455C138.047 220.454 138.391 220.459 138.737 220.464C139.767 220.479 140.824 220.495 141.814 220.342L142.392 220.396C142.55 220.662 142.581 220.986 142.612 221.308C142.628 221.479 142.645 221.649 142.68 221.809C142.795 222.334 143.031 222.887 143.272 223.366C143.707 224.229 144.6 225.361 145.271 226.069C145.497 226.308 145.729 226.52 145.959 226.731L145.96 226.731C146.326 227.066 146.688 227.396 147.011 227.821C149.426 231.924 146.742 231.924 145.033 231.924H138.174C137.24 231.923 136.26 231.961 135.262 232C132.691 232.1 130.003 232.205 127.696 231.661C127.335 231.422 127.24 231.165 127.103 230.796L127.071 230.711L126.882 230.206L126.815 230.017C126.099 229.915 125.259 229.96 124.451 230.004H124.451H124.45H124.45C124.036 230.026 123.63 230.048 123.253 230.049L113.825 230.008L111.561 229.955C111.546 229.912 111.534 229.881 111.525 229.857L111.524 229.857ZM95.1044 212.233C94.0547 212.002 92.6435 211.692 91.9645 211.916C87.8433 214.56 85.3914 220.433 84.3801 225.04C83.3047 229.941 83.1598 235.798 85.4505 240.385L97.2386 241.907L97.4202 241.596L97.411 241.562C96.9734 239.91 96.5427 238.285 96.3561 236.58C95.7586 231.129 96.8447 224.688 99.5869 219.892C100.968 217.477 102.538 215.392 105.044 214.06C102.905 213.553 100.719 213.196 98.5386 212.84L98.5376 212.84C97.6627 212.697 96.7888 212.555 95.9197 212.403C95.6997 212.364 95.4182 212.302 95.1044 212.233Z" fill="#0C0C0C"/>
</svg>
